<mxfile host="app.diagrams.net" modified="2022-04-05T05:23:00.429Z" agent="5.0 (Windows NT 10.0; Win64; x64) AppleWebKit/537.36 (KHTML, like Gecko) Chrome/100.0.4896.75 Safari/537.36" etag="hTUf0wPxBFxOqDb1eYBj" version="17.4.0" type="github">
  <diagram id="EKNtEOO3rtrP5tpK7Aw0" name="Page-1">
    <mxGraphModel dx="1248" dy="677" grid="1" gridSize="10" guides="1" tooltips="1" connect="1" arrows="1" fold="1" page="1" pageScale="1" pageWidth="1169" pageHeight="827" math="0" shadow="0">
      <root>
        <mxCell id="0" />
        <mxCell id="1" parent="0" />
        <mxCell id="_59J-3uwy2crO3-Trldx-1" value="" style="swimlane;startSize=0;collapsible=0;" vertex="1" parent="1">
          <mxGeometry x="440" y="70" width="290" height="480" as="geometry" />
        </mxCell>
        <mxCell id="_59J-3uwy2crO3-Trldx-3" value="Presentation Layer" style="rounded=0;whiteSpace=wrap;html=1;" vertex="1" parent="_59J-3uwy2crO3-Trldx-1">
          <mxGeometry x="70" y="41" width="120" height="60" as="geometry" />
        </mxCell>
        <mxCell id="_59J-3uwy2crO3-Trldx-4" value="Business Access Layer(BAL)" style="rounded=0;whiteSpace=wrap;html=1;" vertex="1" parent="_59J-3uwy2crO3-Trldx-1">
          <mxGeometry x="70" y="141" width="120" height="60" as="geometry" />
        </mxCell>
        <mxCell id="_59J-3uwy2crO3-Trldx-6" value="" style="swimlane;startSize=0;collapsible=0;" vertex="1" parent="_59J-3uwy2crO3-Trldx-1">
          <mxGeometry x="40" y="31" width="200" height="290" as="geometry">
            <mxRectangle x="40" y="31" width="50" height="40" as="alternateBounds" />
          </mxGeometry>
        </mxCell>
        <mxCell id="_59J-3uwy2crO3-Trldx-12" value="" style="endArrow=classic;startArrow=classic;html=1;rounded=0;" edge="1" parent="_59J-3uwy2crO3-Trldx-6">
          <mxGeometry width="50" height="50" relative="1" as="geometry">
            <mxPoint x="89.5" y="110" as="sourcePoint" />
            <mxPoint x="90" y="66" as="targetPoint" />
            <Array as="points">
              <mxPoint x="90" y="76" />
            </Array>
          </mxGeometry>
        </mxCell>
        <mxCell id="_59J-3uwy2crO3-Trldx-13" value="" style="endArrow=classic;startArrow=classic;html=1;rounded=0;" edge="1" parent="_59J-3uwy2crO3-Trldx-6">
          <mxGeometry width="50" height="50" relative="1" as="geometry">
            <mxPoint x="90" y="209" as="sourcePoint" />
            <mxPoint x="90" y="170" as="targetPoint" />
            <Array as="points">
              <mxPoint x="90" y="180" />
            </Array>
          </mxGeometry>
        </mxCell>
        <mxCell id="_59J-3uwy2crO3-Trldx-5" value="Data Access Layer(DAL)" style="rounded=0;whiteSpace=wrap;html=1;" vertex="1" parent="_59J-3uwy2crO3-Trldx-6">
          <mxGeometry x="30" y="209" width="120" height="60" as="geometry" />
        </mxCell>
        <mxCell id="_59J-3uwy2crO3-Trldx-8" value="Storage(Database)" style="shape=cylinder3;whiteSpace=wrap;html=1;boundedLbl=1;backgroundOutline=1;size=15;" vertex="1" parent="_59J-3uwy2crO3-Trldx-1">
          <mxGeometry x="75" y="370" width="110" height="80" as="geometry" />
        </mxCell>
        <mxCell id="_59J-3uwy2crO3-Trldx-9" value="" style="endArrow=classic;startArrow=classic;html=1;rounded=0;entryX=0.5;entryY=1;entryDx=0;entryDy=0;" edge="1" parent="_59J-3uwy2crO3-Trldx-1" target="_59J-3uwy2crO3-Trldx-5">
          <mxGeometry width="50" height="50" relative="1" as="geometry">
            <mxPoint x="129.5" y="370" as="sourcePoint" />
            <mxPoint x="130" y="326" as="targetPoint" />
            <Array as="points">
              <mxPoint x="130" y="336" />
            </Array>
          </mxGeometry>
        </mxCell>
        <mxCell id="_59J-3uwy2crO3-Trldx-10" value="Monolith Architecture" style="text;html=1;align=center;verticalAlign=middle;resizable=0;points=[];autosize=1;strokeColor=none;fillColor=none;fontStyle=1;fontSize=16;" vertex="1" parent="1">
          <mxGeometry x="480" y="40" width="180" height="20" as="geometry" />
        </mxCell>
      </root>
    </mxGraphModel>
  </diagram>
</mxfile>
